<?xml version="1.0" encoding="utf-8"?>
<svg viewBox="130.516 119.73 50 50" xmlns="http://www.w3.org/2000/svg">
  <circle cx="155.516" cy="144.73" r="25" fill="url(#paint0_linear_2828_2662)" transform="matrix(1, 0, 0, 1, 7.105427357601002e-15, 0)"/>
  <path fill-rule="evenodd" clip-rule="evenodd" d="M 167.878 150.739 C 168.548 150.042 168.302 148.888 167.405 148.525 L 157.364 144.453 C 156.57 144.131 155.661 144.326 155.068 144.943 C 154.473 145.562 154.317 146.481 154.673 147.262 L 159.165 157.1 C 159.567 157.982 160.732 158.18 161.404 157.481 C 161.753 157.117 161.875 156.591 161.721 156.111 L 161.306 154.816 L 162.309 153.771 L 166.514 157.774 C 167.04 158.274 167.871 158.256 168.374 157.732 C 168.88 157.205 168.861 156.368 168.332 155.864 L 164.136 151.869 L 165.197 150.764 L 166.548 151.115 C 167.026 151.24 167.535 151.096 167.878 150.739 Z M 162.609 149.64 L 158.042 147.655 C 157.964 147.621 157.886 147.702 157.923 147.779 L 160.078 152.276 L 162.609 149.64 Z" fill="white" transform="matrix(1, 0, 0, 1, 7.105427357601002e-15, 0)"/>
  <path opacity="0.810447" d="M 154.773 132.423 C 158.986 132.423 162.803 134.696 164.842 138.295 C 165.818 140.017 166.338 141.966 166.338 143.988 C 166.338 144.691 165.768 145.261 165.065 145.261 C 164.362 145.261 163.792 144.691 163.792 143.988 C 163.792 142.409 163.387 140.892 162.627 139.55 C 161.036 136.741 158.06 134.969 154.773 134.969 C 149.792 134.969 145.754 139.007 145.754 143.988 C 145.754 148.969 149.792 153.007 154.773 153.007 C 155.476 153.007 156.046 153.577 156.046 154.28 C 156.046 154.983 155.476 155.553 154.773 155.553 C 148.386 155.553 143.208 150.375 143.208 143.988 C 143.208 137.601 148.386 132.423 154.773 132.423 Z" fill="white" stroke="white" transform="matrix(1, 0, 0, 1, 7.105427357601002e-15, 0)"/>
</svg>
