<?xml version="1.0" encoding="UTF-8"?>
<svg id="Layer_3" data-name="Layer 3" xmlns="http://www.w3.org/2000/svg" viewBox="0 0 1080 1080">
  <defs>
    <style>
      .cls-1 {
        fill: #f3592a;
      }

      .cls-2 {
        fill: #fff;
      }
    </style>
  </defs>
  <g>
    <path class="cls-2" d="M775.54,926.21c-68.14,48.01-150.17,68.45-232.94,68.45-78.45,0-161.19-20.52-227.29-63.6-82.99-54.08-135.81-143.62-135.81-243.39,0-77.97,30.24-140.05,52.31-185.37,7.7-15.81,14.35-29.47,18.21-40.6l24.45-70.63c2.92-8.43,15.09-7.65,16.9,1.09l4.6,22.17c31.25-80.33,95.14-147.24,145.52-200,31.95-33.46,71.71-75.09,71.71-92.88v-12.9c0-19.37,22.35-30.18,37.54-18.15l10.11,8.01c7.68,6.08,172.89,138.85,238.38,343.43l5.36-23.05c4.32-18.57,30.47-19.34,35.87-1.05l11.64,39.43c4.76,16.12,10.3,31.93,16.16,48.66,17.54,50.06,37.43,106.79,37.43,181.86,0,94.17-49.34,179.1-124.36,234.35-1.92,1.42-3.86,2.81-5.8,4.18Zm4.37-80.29c34-33.51,67-84.92,67-158.25,0-63.98-16.77-112.9-33.28-160.02-6.29,4.8-11.17,7.64-12.56,8.42l-13.77,7.73c-10.65,5.98-24.03-.19-26.4-12.17l-3.07-15.49c-32.5-164.3-147.32-291-202.91-344.25-15.92,25.46-41.57,52.32-70.91,83.04-66.02,69.14-148.2,155.19-148.2,256.15v23.36c0,14.93-17.16,23.34-28.96,14.19l-18.46-14.31c-1.68-1.31-3.3-2.63-4.85-3.97-20.46,42.02-45.25,94.07-45.25,157.32s21.35,114.66,63.53,157.02c0,0,88.66,91.16,240.77,91.16,143.87,0,237.3-89.94,237.3-89.94Z"/>
    <path class="cls-2" d="M389.4,817.09c13.24,15.52,30.74,29.37,45.97,37.86,32.88,18.33,72.33,26.95,109.81,26.95,57,0,125.45-23.99,156.63-74.99,10.26-16.78,12.3-41.45-7.88-52.1-21.69-11.44-42.33,.55-62.91,7.96-23.44,8.44-47.79,15.26-72.85,15.98-29.45,.84-58.17-6.75-86.24-14.77-25.14-7.18-75.47-31.92-96.71-4.73-7,8.96-6.72,21.97-2.26,32.43,3.66,8.57,9.46,17.22,16.44,25.41Z"/>
  </g>
</svg>
